# xmcd CD database file
#
# Track frame offsets:
#	150
#	25951
#	52882
#	75118
#	99736
#	122251
#	144633
#	169502
#
# Disc length: 2513 seconds
#
# Revision: 0
# Processed by: cddbd v1.5.2PL0 Copyright (c) Steve Scherf et al.
# Submitted via: CDex 1.51
#
DISCID=5409cf08
DTITLE=Relaxing Melodies - Monterey Coast
DYEAR=1900
DGENRE=New Age
TTITLE0=Little Sur River
TTITLE1=Morrow Bay
TTITLE2=Legend of Garradata
TTITLE3=Ventana Wilderness
TTITLE4=Rocky Creek
TTITLE5=Pfeiffer Beach
TTITLE6=Carmel River
TTITLE7=Hurricane Point
EXTD=
EXTT0=
EXTT1=
EXTT2=
EXTT3=
EXTT4=
EXTT5=
EXTT6=
EXTT7=
PLAYORDER=
